<svg width="770" height="464" viewBox="0 0 770 464" fill="none" xmlns="http://www.w3.org/2000/svg"><path d="M167.3 205.01V203.37C167.3 190.43 159.77 185.69 147.82 185.69H129.81V224.33H147.82C159.77 224.33 167.3 218.76 167.3 205.01Z" fill="#0351C1"/><path d="M284.42 70.66C270.17 70.66 259.53 81.63 259.53 98.17C259.53 114.71 270.17 125.68 284.42 125.68C298.67 125.68 309.31 114.71 309.31 98.17C309.31 81.63 298.67 70.66 284.42 70.66Z" fill="#0351C1"/><path d="M231.32 280C245.066 280 256.21 267.683 256.21 252.49C256.21 237.297 245.066 224.98 231.32 224.98C217.574 224.98 206.43 237.297 206.43 252.49C206.43 267.683 217.574 280 231.32 280Z" fill="#0351C1"/><path d="M613.61 280C627.356 280 638.5 267.683 638.5 252.49C638.5 237.297 627.356 224.98 613.61 224.98C599.864 224.98 588.72 237.297 588.72 252.49C588.72 267.683 599.864 280 613.61 280Z" fill="#0351C1"/><path d="M689.08 308.69V154.37H488.02V0.0400391H0V155.32H80.92V308.69H0V463.97H770V308.69H689.08ZM66 140.74C47.82 140.74 33.09 129.12 33.09 107.99V98.8201H49.46V106.84C49.46 118.47 56.01 125.67 66 125.67C75.99 125.67 82.54 119.77 82.54 109.95C82.54 100.13 76.32 93.2501 67.97 87.5201L55.03 78.51C43.9 70.81 34.89 61.15 34.89 44.78C34.89 23.33 48.81 14.65 65.84 14.65C82.87 14.65 97.11 25.29 97.11 47.4V54.93H80.74V47.89C80.74 35.28 75.01 29.72 65.84 29.72C57.16 29.72 51.27 34.96 51.27 44.78C51.27 54.6 57.66 60.1701 65.68 65.5701L78.94 75.0701C89.91 82.7601 98.91 92.1001 98.91 107.98C98.91 129.92 84.17 140.73 66 140.73V140.74ZM113.31 57.2401H129.68V68.7C134.43 60.19 142.61 55.6001 152.44 55.6001C164.06 55.6001 173.56 60.84 178.31 71.81C183.06 61.17 192.56 55.6001 204.34 55.6001C220.88 55.6001 233.16 66.41 233.16 88.84V139.11H216.79V92.12C216.79 77.38 210.24 70.0201 199.27 70.0201C188.3 70.0201 181.42 77.39 181.42 92.12V139.11H165.05V92.12C165.05 77.38 158.34 70.0201 147.37 70.0201C136.4 70.0201 129.69 77.39 129.69 92.12V139.11H113.32V57.2401H113.31ZM167.78 293.43L129.79 233.34V293.43H113.42V170.63H149.44C169.25 170.63 183.66 181.44 183.66 201.74V206.65C183.66 226.95 169.25 236.94 151.08 237.92L187.43 293.43H167.78ZM272.56 293.43H256.19V281.15C249.8 289.83 240.31 295.07 229.34 295.07C206.91 295.07 190.04 277.55 190.04 252.5C190.04 227.45 206.9 209.93 229.34 209.93C240.31 209.93 249.81 215.17 256.19 223.85V211.57H272.56V293.44V293.43ZM243.14 98.17C243.14 73.12 260 55.6001 282.44 55.6001C293.41 55.6001 302.91 60.84 309.29 69.5201V57.2401H325.66V139.11H309.29V126.83C302.9 135.51 293.41 140.75 282.44 140.75C260.01 140.75 243.14 123.23 243.14 98.18V98.17ZM360.98 293.43H344.61V248.73C344.61 232.52 337.08 224.34 324.8 224.34C312.52 224.34 304.99 232.53 304.99 248.73V293.43H288.62V211.56H304.99V224.49C310.07 214.99 319.07 209.92 329.88 209.92C347.73 209.92 360.99 221.38 360.99 245.45V293.42L360.98 293.43ZM357.26 98.01V139.11H340.89V57.2401H357.26V71.98C363.15 61.34 373.14 55.61 385.58 55.61C387.54 55.61 389.51 55.7701 390.82 56.1001V73.95C388.37 73.13 385.42 72.64 382.14 72.64C366.42 72.64 357.25 81.15 357.25 98.0201L357.26 98.01ZM430.07 293.43L390.94 250.37V293.43H374.56V170.63H390.94V247.91L426.14 211.56H447.91L409.43 248.89L450.85 293.42H430.06L430.07 293.43ZM455.01 71.65H431.43V111.11C431.43 121.26 435.85 125.68 445.35 125.68C448.95 125.68 452.23 125.19 455.01 124.21V138.78C452.06 139.76 446.99 140.75 442.24 140.75C426.52 140.75 415.06 134.36 415.06 112.1V71.66H401.63V57.25H415.06V33.0201H431.43V57.25H455.01V71.66V71.65ZM474.77 293.43H458.4V211.56H474.77V293.43ZM466.58 193.72C460.36 193.72 455.78 188.97 455.78 182.75C455.78 176.53 460.36 171.94 466.58 171.94C472.8 171.94 477.39 176.52 477.39 182.75C477.39 188.98 472.97 193.72 466.58 193.72ZM562.36 293.43H545.99V248.73C545.99 232.52 538.46 224.34 526.18 224.34C513.9 224.34 506.37 232.53 506.37 248.73V293.43H490V211.56H506.37V224.49C511.45 214.99 520.45 209.92 531.26 209.92C549.11 209.92 562.37 221.38 562.37 245.45V293.42L562.36 293.43ZM654.86 294.09C654.86 318.98 637.01 336.01 614.58 336.01C592.15 336.01 577.25 321.76 574.3 300.64H590.84C592.97 312.92 601.81 320.94 614.58 320.94C629.64 320.94 638.48 309.81 638.48 294.09V281.16C632.09 289.84 622.6 295.08 611.63 295.08C589.2 295.08 572.33 277.56 572.33 252.51C572.33 227.46 589.19 209.94 611.63 209.94C622.6 209.94 632.1 215.18 638.48 223.86V211.58H654.85V294.1L654.86 294.09Z" fill="#0351C1"/></svg>